# xmcd CD database file
# Copyright (C) 1993-1998 Ti Kan
#
# Track frame offsets:
#  150
#  12215
#  25205
#  38760
#  51632
#  65460
#  79770
#  95707
#  112065
#  126290
#  140630
#  152707
#  168762
#
# Disc length: 2408 seconds
#
# Revision: 1
# Processed by: cddbd v1.4b41PL1 Copyright (c) Steve Scherf et al.
# Submitted via: KiC 2.1 - (C) 1996-1998 Alwin Hoogerdijk
#
DISCID=b109660d
DTITLE=Chubby Wise - In Nashville
DYEAR=1900
DGENRE=
TTITLE0=Fireball Mail
TTITLE1=Trouble in Mind
TTITLE2=A Petal From a Faded Rose
TTITLE3=Carroll County Blues
TTITLE4=Georgiana Moon Waltz
TTITLE5=If I Could Hear My Mother Pray Again
TTITLE6=Waitin' on the Robert E. Lee
TTITLE7=Cherokee Waltz
TTITLE8=I'm Just Here to Get My Baby Out of Jail
TTITLE9=Near the Cross
TTITLE10=Daddy Blues
TTITLE11=Down Yonder
TTITLE12=Footprints in the Snow
EXTD=
EXTT0=
EXTT1=
EXTT2=
EXTT3=
EXTT4=
EXTT5=
EXTT6=
EXTT7=
EXTT8=
EXTT9=
EXTT10=
EXTT11=
EXTT12=
PLAYORDER=
